<?xml version="1.0" encoding="UTF-8"?>
<svg id="Capa_2" data-name="Capa 2" xmlns="http://www.w3.org/2000/svg" viewBox="0 0 640.52 138.91">
  <defs>
    <style>
      .cls-1 {
        font-family: GeoramaRoman-Regular, Georama;
        font-size: 19.07px;
        font-variation-settings: 'wdth' 100, 'wght' 400;
      }

      .cls-1, .cls-2 {
        fill: #0146f9;
      }
    </style>
  </defs>
  <g id="Capa_1-2" data-name="Capa 1">
    <g>
      <text class="cls-1" transform="translate(188.86 132.62)"><tspan x="0" y="0">FORJAMOS LA INDUSTRIA CON PRECISIÓN Y CALIDAD</tspan></text>
      <g>
        <g>
          <path class="cls-2" d="M161.37,2.37h87.49v21.95h-30.89v76.05h-25.87V24.32h-30.73V2.37Z"/>
          <path class="cls-2" d="M339.18,100.37h-79.97V2.37h79.97v21.95h-54.1v16.78h47.98v20.23h-47.98v17.09h54.1v21.95Z"/>
          <path class="cls-2" d="M407.86,100.37h-25.87v-32.93L344.83,2.37h28.69l22.11,40.92,21.95-40.92h27.44l-37.16,65.07v32.93Z"/>
          <path class="cls-2" d="M488.61,102.72c-13.96,0-25.24-2.2-35.59-6.12v-22.89c10.51,3.92,23.36,5.96,33.87,5.96,8.15,0,16.15-1.25,22.58-4.23v-10.19l-56.45-11.29V12.25C468.23,3.62,483.28.02,498.65.02c13.96,0,25.25,2.2,35.6,6.11v22.9c-10.03-3.61-22.42-5.96-32.46-5.96-8.78,0-16.15,1.1-23.83,4.23v9.72l56.29,11.29v42.18c-15.05,8.63-30.26,12.23-45.63,12.23Z"/>
          <path class="cls-2" d="M612.96,72.77h-37.63v27.59h-25.71V12.25C564.35,3.62,579.09.02,594.14.02s29.63,3.61,44.37,12.23v88.12h-25.56v-27.59ZM575.32,50.35h37.63v-22.58c-6.12-2.98-12.08-4.23-18.82-4.23s-12.86,1.26-18.81,4.23v22.58Z"/>
        </g>
        <path class="cls-2" d="M0,0v135.82h135.82V0H0ZM66.91,129.2l-6.96-7.01,6.4-.4,7.74.48-7.19,6.93ZM75.83,120.61l-9.47.59-7.87-.49-7.77-7.83,15.64-.97,17.38,1.08-7.91,7.62ZM84.33,110.2l-17.98,1.12-16.11-1v-7.29l16.11-1,17.98,1.12v7.05ZM84.33,100.31l-17.98,1.12-16.11-1v-6.96l16.11-1.33,17.98,1.33v6.84ZM104.55,89.17l-38.2,2.38-38.11-2.37v-4.55l38.11-2.37,38.2,2.38v4.54ZM104.55,79.28l-38.2,2.38-38.11-2.37v-4.55l38.11-2.37,38.2,2.38v4.54ZM104.55,69.4l-38.2,2.38-38.11-2.37v-4.55l38.11-2.37,38.2,2.38v4.54ZM104.55,59.51l-38.2,2.38-38.11-2.37v-4.55l38.11-2.37,38.2,2.38v4.54ZM66.36,42.71l17.98,1.12v7.05l-17.98,1.12-16.11-1v-7.29l16.11-1ZM50.25,41.12v-7.29l16.11-1,17.98,1.12v7.05l-17.98,1.12-16.11-1ZM117.14,29.07l-6.93.43h-25.88v1.61l-17.98,1.12-16.11-1v-1.73h-27.75l-5.06-.31v-3.2l48.91-3.04,50.79,3.16v2.97ZM117.14,19.19l-50.79,3.16-48.91-3.04v-3.2l48.91-3.04,50.79,3.16v2.97ZM117.14,9.3l-50.79,3.16-48.91-3.04v-2.8h99.7v2.69Z"/>
      </g>
    </g>
  </g>
</svg>